<svg xmlns="http://www.w3.org/2000/svg" viewBox="0 0 170.75 94.04"><defs><style>.cls-1{fill:#2a2a2a;}.cls-2{fill:#fff;}.cls-3{fill:red;stroke:#fff;stroke-miterlimit:10;stroke-opacity:0.5;stroke-width:0.86px;}</style></defs><g id="Слой_2" data-name="Слой 2"><g id="Слой_1-2" data-name="Слой 1"><rect class="cls-1" width="170.75" height="94.04"/><path class="cls-2" d="M23.86,75.29c0,3.78,2.81,5.17,8,3.32l.26,1c-4.11,1.6-9.4,1.52-9.4-4.28V66.76c0-2.91.89-4,2.27-4.84,1.69-1,4.5-.83,6.48.22L31.1,63a8.15,8.15,0,0,0-3-.64c-1.46,0-4.21.4-4.21,4.17Z"/><path class="cls-2" d="M40.36,61.52l6.06,18.72H45.17L42.93,73.4H36.69L34.5,80.24H33.28l6-18.72Zm-3.31,10.7h5.57l-2.81-8.75Z"/><path class="cls-2" d="M49.13,75.48c.13,1.79,1.82,3.91,4.92,3.91,2.57,0,5-1,5-4.15,0-5.35-10.64-3.48-10.64-9.39,0-2.24,1.82-4.6,5.86-4.6a7.69,7.69,0,0,1,3.8.81l-.37,1.15a7.48,7.48,0,0,0-3.38-.78c-2.68,0-4.69,1.2-4.69,3.5,0,4.63,10.67,2.95,10.67,9.23,0,3.08-1.77,5.38-6.22,5.38-4,0-6.06-2.68-6.14-5.06Z"/><path class="cls-2" d="M72.06,61.52v1.12H64.54V69.2h5.25l-.39,1.17H64.54v8.78H72v1.09H63.37V61.52Z"/><path class="cls-2" d="M83.2,69.2v1.17H74.87V69.2Z"/><path class="cls-2" d="M93.74,61.52c3.44,0,4.89,2.41,4.89,5.72,0,2.36-.28,6.16-4.86,6.16H88.51v6.84H87.34V61.52Zm-5.23,10.7h5.26c3.61,0,3.69-3.34,3.69-5,0-3-1.3-4.57-3.64-4.57H88.51Z"/><path class="cls-2" d="M103,61.52V79.15h8.22v1.09h-9.39V61.52Z"/><path class="cls-2" d="M119.22,61.52l6.07,18.72H124l-2.2-6.84h-6.25l-2.18,6.84h-1.23l6-18.72Zm-3.3,10.7h5.57l-2.81-8.75Z"/><path class="cls-2" d="M128.57,75.29c0,3.78,2.81,5.17,8,3.32l.26,1c-4.11,1.6-9.39,1.52-9.39-4.28V66.76c0-2.91.88-4,2.26-4.84,1.69-1,4.5-.83,6.48.22l-.36.85a8.15,8.15,0,0,0-3-.64c-1.45,0-4.21.4-4.21,4.17Z"/><path class="cls-2" d="M148.56,61.52v1.12H141V69.2h5.25l-.39,1.17H141v8.78h7.46v1.09h-8.64V61.52Z"/><path class="cls-3" d="M86.58,50.6S100.34,37.2,100.34,27A13.77,13.77,0,0,0,72.82,26q0,.53,0,1.05C72.82,37.2,86.58,50.6,86.58,50.6Zm0-15.69a7.07,7.07,0,1,1,6.88-7.26v.19A7,7,0,0,1,86.58,34.91Z"/></g></g></svg>